<mxfile host="app.diagrams.net" modified="2023-12-23T09:26:14.871Z" agent="Mozilla/5.0 (Windows NT 10.0; Win64; x64) AppleWebKit/537.36 (KHTML, like Gecko) Chrome/118.0.0.0 Safari/537.36" etag="d-0u50p9cY97PQrG_vmo" version="22.1.11" type="github">
  <diagram name="Page-1" id="I-7tbdS5bkR3QFpDPWn6">
    <mxGraphModel dx="2286" dy="809" grid="1" gridSize="10" guides="1" tooltips="1" connect="1" arrows="1" fold="1" page="1" pageScale="1" pageWidth="850" pageHeight="1100" math="0" shadow="0">
      <root>
        <mxCell id="0" />
        <mxCell id="1" parent="0" />
        <mxCell id="Jh2_Rf79OUwAE3CNvrpS-127" value="" style="rounded=0;whiteSpace=wrap;html=1;fillColor=none;dashed=1;" parent="1" vertex="1">
          <mxGeometry x="-210" y="60" width="1320" height="930" as="geometry" />
        </mxCell>
        <mxCell id="Jh2_Rf79OUwAE3CNvrpS-9" value="&lt;div style=&quot;&quot;&gt;&lt;pre style=&quot;font-family: &amp;quot;JetBrains Mono&amp;quot;, monospace; font-size: 9.8pt;&quot;&gt;&lt;font color=&quot;#070708&quot;&gt;CorporateCustomer&lt;/font&gt;&lt;/pre&gt;&lt;/div&gt;" style="swimlane;fontStyle=0;childLayout=stackLayout;horizontal=1;startSize=26;fillColor=none;horizontalStack=0;resizeParent=1;resizeParentMax=0;resizeLast=0;collapsible=1;marginBottom=0;whiteSpace=wrap;html=1;" parent="1" vertex="1">
          <mxGeometry x="50" y="90" width="140" height="78" as="geometry" />
        </mxCell>
        <mxCell id="Jh2_Rf79OUwAE3CNvrpS-10" value="- companyName: String" style="text;strokeColor=none;fillColor=none;align=left;verticalAlign=top;spacingLeft=4;spacingRight=4;overflow=hidden;rotatable=0;points=[[0,0.5],[1,0.5]];portConstraint=eastwest;whiteSpace=wrap;html=1;" parent="Jh2_Rf79OUwAE3CNvrpS-9" vertex="1">
          <mxGeometry y="26" width="140" height="26" as="geometry" />
        </mxCell>
        <mxCell id="Jh2_Rf79OUwAE3CNvrpS-11" value="- vatNumber: String" style="text;strokeColor=none;fillColor=none;align=left;verticalAlign=top;spacingLeft=4;spacingRight=4;overflow=hidden;rotatable=0;points=[[0,0.5],[1,0.5]];portConstraint=eastwest;whiteSpace=wrap;html=1;" parent="Jh2_Rf79OUwAE3CNvrpS-9" vertex="1">
          <mxGeometry y="52" width="140" height="26" as="geometry" />
        </mxCell>
        <mxCell id="Jh2_Rf79OUwAE3CNvrpS-24" value="&lt;font color=&quot;#2008ff&quot;&gt;Appointment&lt;/font&gt;" style="swimlane;fontStyle=0;childLayout=stackLayout;horizontal=1;startSize=26;fillColor=none;horizontalStack=0;resizeParent=1;resizeParentMax=0;resizeLast=0;collapsible=1;marginBottom=0;whiteSpace=wrap;html=1;" parent="1" vertex="1">
          <mxGeometry x="580" y="90" width="220" height="312" as="geometry">
            <mxRectangle x="580" y="90" width="110" height="30" as="alternateBounds" />
          </mxGeometry>
        </mxCell>
        <mxCell id="Jh2_Rf79OUwAE3CNvrpS-25" value="- start: LocalDateTime" style="text;strokeColor=none;fillColor=none;align=left;verticalAlign=top;spacingLeft=4;spacingRight=4;overflow=hidden;rotatable=0;points=[[0,0.5],[1,0.5]];portConstraint=eastwest;whiteSpace=wrap;html=1;" parent="Jh2_Rf79OUwAE3CNvrpS-24" vertex="1">
          <mxGeometry y="26" width="220" height="26" as="geometry" />
        </mxCell>
        <mxCell id="Jh2_Rf79OUwAE3CNvrpS-26" value="- end:LocalDateTime" style="text;strokeColor=none;fillColor=none;align=left;verticalAlign=top;spacingLeft=4;spacingRight=4;overflow=hidden;rotatable=0;points=[[0,0.5],[1,0.5]];portConstraint=eastwest;whiteSpace=wrap;html=1;" parent="Jh2_Rf79OUwAE3CNvrpS-24" vertex="1">
          <mxGeometry y="52" width="220" height="26" as="geometry" />
        </mxCell>
        <mxCell id="Jh2_Rf79OUwAE3CNvrpS-27" value="- cancelAt: LocalDateTime" style="text;strokeColor=none;fillColor=none;align=left;verticalAlign=top;spacingLeft=4;spacingRight=4;overflow=hidden;rotatable=0;points=[[0,0.5],[1,0.5]];portConstraint=eastwest;whiteSpace=wrap;html=1;" parent="Jh2_Rf79OUwAE3CNvrpS-24" vertex="1">
          <mxGeometry y="78" width="220" height="26" as="geometry" />
        </mxCell>
        <mxCell id="Jh2_Rf79OUwAE3CNvrpS-28" value="- canceler: &lt;font color=&quot;#ff12e7&quot;&gt;User&lt;/font&gt;" style="text;strokeColor=none;fillColor=none;align=left;verticalAlign=top;spacingLeft=4;spacingRight=4;overflow=hidden;rotatable=0;points=[[0,0.5],[1,0.5]];portConstraint=eastwest;whiteSpace=wrap;html=1;" parent="Jh2_Rf79OUwAE3CNvrpS-24" vertex="1">
          <mxGeometry y="104" width="220" height="26" as="geometry" />
        </mxCell>
        <mxCell id="Jh2_Rf79OUwAE3CNvrpS-29" value="- status: &lt;b&gt;AppointmentStatus&lt;/b&gt;" style="text;strokeColor=none;fillColor=none;align=left;verticalAlign=top;spacingLeft=4;spacingRight=4;overflow=hidden;rotatable=0;points=[[0,0.5],[1,0.5]];portConstraint=eastwest;whiteSpace=wrap;html=1;" parent="Jh2_Rf79OUwAE3CNvrpS-24" vertex="1">
          <mxGeometry y="130" width="220" height="26" as="geometry" />
        </mxCell>
        <mxCell id="Jh2_Rf79OUwAE3CNvrpS-30" value="- customer: &lt;font color=&quot;#1443ff&quot;&gt;Customer&lt;/font&gt;" style="text;strokeColor=none;fillColor=none;align=left;verticalAlign=top;spacingLeft=4;spacingRight=4;overflow=hidden;rotatable=0;points=[[0,0.5],[1,0.5]];portConstraint=eastwest;whiteSpace=wrap;html=1;" parent="Jh2_Rf79OUwAE3CNvrpS-24" vertex="1">
          <mxGeometry y="156" width="220" height="26" as="geometry" />
        </mxCell>
        <mxCell id="Jh2_Rf79OUwAE3CNvrpS-31" value="- provider: &lt;font color=&quot;#a1c200&quot;&gt;Provider&lt;/font&gt;" style="text;strokeColor=none;fillColor=none;align=left;verticalAlign=top;spacingLeft=4;spacingRight=4;overflow=hidden;rotatable=0;points=[[0,0.5],[1,0.5]];portConstraint=eastwest;whiteSpace=wrap;html=1;" parent="Jh2_Rf79OUwAE3CNvrpS-24" vertex="1">
          <mxGeometry y="182" width="220" height="26" as="geometry" />
        </mxCell>
        <mxCell id="Jh2_Rf79OUwAE3CNvrpS-32" value="- work: &lt;font color=&quot;#12b500&quot;&gt;Work&lt;/font&gt;" style="text;strokeColor=none;fillColor=none;align=left;verticalAlign=top;spacingLeft=4;spacingRight=4;overflow=hidden;rotatable=0;points=[[0,0.5],[1,0.5]];portConstraint=eastwest;whiteSpace=wrap;html=1;" parent="Jh2_Rf79OUwAE3CNvrpS-24" vertex="1">
          <mxGeometry y="208" width="220" height="26" as="geometry" />
        </mxCell>
        <mxCell id="Jh2_Rf79OUwAE3CNvrpS-34" value="- chatMessages: List&amp;lt;&lt;font color=&quot;#8e9c13&quot;&gt;ChatMessages&lt;/font&gt;&amp;gt;" style="text;strokeColor=none;fillColor=none;align=left;verticalAlign=top;spacingLeft=4;spacingRight=4;overflow=hidden;rotatable=0;points=[[0,0.5],[1,0.5]];portConstraint=eastwest;whiteSpace=wrap;html=1;" parent="Jh2_Rf79OUwAE3CNvrpS-24" vertex="1">
          <mxGeometry y="234" width="220" height="26" as="geometry" />
        </mxCell>
        <mxCell id="Jh2_Rf79OUwAE3CNvrpS-35" value="- invoice: &lt;font color=&quot;#ff1f4b&quot;&gt;Invoice&lt;/font&gt;" style="text;strokeColor=none;fillColor=none;align=left;verticalAlign=top;spacingLeft=4;spacingRight=4;overflow=hidden;rotatable=0;points=[[0,0.5],[1,0.5]];portConstraint=eastwest;whiteSpace=wrap;html=1;" parent="Jh2_Rf79OUwAE3CNvrpS-24" vertex="1">
          <mxGeometry y="260" width="220" height="26" as="geometry" />
        </mxCell>
        <mxCell id="Jh2_Rf79OUwAE3CNvrpS-36" value="- exchangeRequest: &lt;font color=&quot;#4bab52&quot;&gt;ExchangeRequest&lt;/font&gt;" style="text;strokeColor=none;fillColor=none;align=left;verticalAlign=top;spacingLeft=4;spacingRight=4;overflow=hidden;rotatable=0;points=[[0,0.5],[1,0.5]];portConstraint=eastwest;whiteSpace=wrap;html=1;" parent="Jh2_Rf79OUwAE3CNvrpS-24" vertex="1">
          <mxGeometry y="286" width="220" height="26" as="geometry" />
        </mxCell>
        <mxCell id="Jh2_Rf79OUwAE3CNvrpS-38" value="&lt;font color=&quot;#d817ff&quot;&gt;User&lt;/font&gt;" style="swimlane;fontStyle=0;childLayout=stackLayout;horizontal=1;startSize=26;fillColor=none;horizontalStack=0;resizeParent=1;resizeParentMax=0;resizeLast=0;collapsible=1;marginBottom=0;whiteSpace=wrap;html=1;" parent="1" vertex="1">
          <mxGeometry x="285" y="210" width="215" height="364" as="geometry" />
        </mxCell>
        <mxCell id="Jh2_Rf79OUwAE3CNvrpS-39" value="- userName: String" style="text;strokeColor=none;fillColor=none;align=left;verticalAlign=top;spacingLeft=4;spacingRight=4;overflow=hidden;rotatable=0;points=[[0,0.5],[1,0.5]];portConstraint=eastwest;whiteSpace=wrap;html=1;" parent="Jh2_Rf79OUwAE3CNvrpS-38" vertex="1">
          <mxGeometry y="26" width="215" height="26" as="geometry" />
        </mxCell>
        <mxCell id="Jh2_Rf79OUwAE3CNvrpS-40" value="- password: String" style="text;strokeColor=none;fillColor=none;align=left;verticalAlign=top;spacingLeft=4;spacingRight=4;overflow=hidden;rotatable=0;points=[[0,0.5],[1,0.5]];portConstraint=eastwest;whiteSpace=wrap;html=1;" parent="Jh2_Rf79OUwAE3CNvrpS-38" vertex="1">
          <mxGeometry y="52" width="215" height="26" as="geometry" />
        </mxCell>
        <mxCell id="Jh2_Rf79OUwAE3CNvrpS-41" value="- firstName: String" style="text;strokeColor=none;fillColor=none;align=left;verticalAlign=top;spacingLeft=4;spacingRight=4;overflow=hidden;rotatable=0;points=[[0,0.5],[1,0.5]];portConstraint=eastwest;whiteSpace=wrap;html=1;" parent="Jh2_Rf79OUwAE3CNvrpS-38" vertex="1">
          <mxGeometry y="78" width="215" height="26" as="geometry" />
        </mxCell>
        <mxCell id="Jh2_Rf79OUwAE3CNvrpS-49" value="- password: String" style="text;strokeColor=none;fillColor=none;align=left;verticalAlign=top;spacingLeft=4;spacingRight=4;overflow=hidden;rotatable=0;points=[[0,0.5],[1,0.5]];portConstraint=eastwest;whiteSpace=wrap;html=1;" parent="Jh2_Rf79OUwAE3CNvrpS-38" vertex="1">
          <mxGeometry y="104" width="215" height="26" as="geometry" />
        </mxCell>
        <mxCell id="Jh2_Rf79OUwAE3CNvrpS-50" value="- firstName: String" style="text;strokeColor=none;fillColor=none;align=left;verticalAlign=top;spacingLeft=4;spacingRight=4;overflow=hidden;rotatable=0;points=[[0,0.5],[1,0.5]];portConstraint=eastwest;whiteSpace=wrap;html=1;" parent="Jh2_Rf79OUwAE3CNvrpS-38" vertex="1">
          <mxGeometry y="130" width="215" height="26" as="geometry" />
        </mxCell>
        <mxCell id="Jh2_Rf79OUwAE3CNvrpS-52" value="- lastName: String" style="text;strokeColor=none;fillColor=none;align=left;verticalAlign=top;spacingLeft=4;spacingRight=4;overflow=hidden;rotatable=0;points=[[0,0.5],[1,0.5]];portConstraint=eastwest;whiteSpace=wrap;html=1;" parent="Jh2_Rf79OUwAE3CNvrpS-38" vertex="1">
          <mxGeometry y="156" width="215" height="26" as="geometry" />
        </mxCell>
        <mxCell id="Jh2_Rf79OUwAE3CNvrpS-51" value="- email: String" style="text;strokeColor=none;fillColor=none;align=left;verticalAlign=top;spacingLeft=4;spacingRight=4;overflow=hidden;rotatable=0;points=[[0,0.5],[1,0.5]];portConstraint=eastwest;whiteSpace=wrap;html=1;" parent="Jh2_Rf79OUwAE3CNvrpS-38" vertex="1">
          <mxGeometry y="182" width="215" height="26" as="geometry" />
        </mxCell>
        <mxCell id="Jh2_Rf79OUwAE3CNvrpS-42" value="- mobile: String" style="text;strokeColor=none;fillColor=none;align=left;verticalAlign=top;spacingLeft=4;spacingRight=4;overflow=hidden;rotatable=0;points=[[0,0.5],[1,0.5]];portConstraint=eastwest;whiteSpace=wrap;html=1;" parent="Jh2_Rf79OUwAE3CNvrpS-38" vertex="1">
          <mxGeometry y="208" width="215" height="26" as="geometry" />
        </mxCell>
        <mxCell id="Jh2_Rf79OUwAE3CNvrpS-53" value="- street: String" style="text;strokeColor=none;fillColor=none;align=left;verticalAlign=top;spacingLeft=4;spacingRight=4;overflow=hidden;rotatable=0;points=[[0,0.5],[1,0.5]];portConstraint=eastwest;whiteSpace=wrap;html=1;" parent="Jh2_Rf79OUwAE3CNvrpS-38" vertex="1">
          <mxGeometry y="234" width="215" height="26" as="geometry" />
        </mxCell>
        <mxCell id="Jh2_Rf79OUwAE3CNvrpS-54" value="- city: String" style="text;strokeColor=none;fillColor=none;align=left;verticalAlign=top;spacingLeft=4;spacingRight=4;overflow=hidden;rotatable=0;points=[[0,0.5],[1,0.5]];portConstraint=eastwest;whiteSpace=wrap;html=1;" parent="Jh2_Rf79OUwAE3CNvrpS-38" vertex="1">
          <mxGeometry y="260" width="215" height="26" as="geometry" />
        </mxCell>
        <mxCell id="Jh2_Rf79OUwAE3CNvrpS-56" value="- postcode: String" style="text;strokeColor=none;fillColor=none;align=left;verticalAlign=top;spacingLeft=4;spacingRight=4;overflow=hidden;rotatable=0;points=[[0,0.5],[1,0.5]];portConstraint=eastwest;whiteSpace=wrap;html=1;" parent="Jh2_Rf79OUwAE3CNvrpS-38" vertex="1">
          <mxGeometry y="286" width="215" height="26" as="geometry" />
        </mxCell>
        <mxCell id="Jh2_Rf79OUwAE3CNvrpS-55" value="-&amp;nbsp;notifications: List&amp;lt;&lt;font color=&quot;#0593ff&quot;&gt;Notification&lt;/font&gt;&amp;gt;" style="text;strokeColor=none;fillColor=none;align=left;verticalAlign=top;spacingLeft=4;spacingRight=4;overflow=hidden;rotatable=0;points=[[0,0.5],[1,0.5]];portConstraint=eastwest;whiteSpace=wrap;html=1;" parent="Jh2_Rf79OUwAE3CNvrpS-38" vertex="1">
          <mxGeometry y="312" width="215" height="26" as="geometry" />
        </mxCell>
        <mxCell id="Jh2_Rf79OUwAE3CNvrpS-48" value="- roles: Collection&amp;lt;&lt;font color=&quot;#047500&quot;&gt;&lt;b&gt;Roles&lt;/b&gt;&lt;/font&gt;&amp;gt;" style="text;strokeColor=none;fillColor=none;align=left;verticalAlign=top;spacingLeft=4;spacingRight=4;overflow=hidden;rotatable=0;points=[[0,0.5],[1,0.5]];portConstraint=eastwest;whiteSpace=wrap;html=1;" parent="Jh2_Rf79OUwAE3CNvrpS-38" vertex="1">
          <mxGeometry y="338" width="215" height="26" as="geometry" />
        </mxCell>
        <mxCell id="Jh2_Rf79OUwAE3CNvrpS-57" value="&lt;font color=&quot;#0593ff&quot;&gt;Notification&lt;/font&gt;" style="swimlane;fontStyle=0;childLayout=stackLayout;horizontal=1;startSize=26;fillColor=none;horizontalStack=0;resizeParent=1;resizeParentMax=0;resizeLast=0;collapsible=1;marginBottom=0;whiteSpace=wrap;html=1;" parent="1" vertex="1">
          <mxGeometry x="40" y="310" width="140" height="182" as="geometry" />
        </mxCell>
        <mxCell id="Jh2_Rf79OUwAE3CNvrpS-58" value="- title: String" style="text;strokeColor=none;fillColor=none;align=left;verticalAlign=top;spacingLeft=4;spacingRight=4;overflow=hidden;rotatable=0;points=[[0,0.5],[1,0.5]];portConstraint=eastwest;whiteSpace=wrap;html=1;" parent="Jh2_Rf79OUwAE3CNvrpS-57" vertex="1">
          <mxGeometry y="26" width="140" height="26" as="geometry" />
        </mxCell>
        <mxCell id="Jh2_Rf79OUwAE3CNvrpS-59" value="- messege: String" style="text;strokeColor=none;fillColor=none;align=left;verticalAlign=top;spacingLeft=4;spacingRight=4;overflow=hidden;rotatable=0;points=[[0,0.5],[1,0.5]];portConstraint=eastwest;whiteSpace=wrap;html=1;" parent="Jh2_Rf79OUwAE3CNvrpS-57" vertex="1">
          <mxGeometry y="52" width="140" height="26" as="geometry" />
        </mxCell>
        <mxCell id="Jh2_Rf79OUwAE3CNvrpS-60" value="- createdAt: Date" style="text;strokeColor=none;fillColor=none;align=left;verticalAlign=top;spacingLeft=4;spacingRight=4;overflow=hidden;rotatable=0;points=[[0,0.5],[1,0.5]];portConstraint=eastwest;whiteSpace=wrap;html=1;" parent="Jh2_Rf79OUwAE3CNvrpS-57" vertex="1">
          <mxGeometry y="78" width="140" height="26" as="geometry" />
        </mxCell>
        <mxCell id="Jh2_Rf79OUwAE3CNvrpS-62" value="- url: String" style="text;strokeColor=none;fillColor=none;align=left;verticalAlign=top;spacingLeft=4;spacingRight=4;overflow=hidden;rotatable=0;points=[[0,0.5],[1,0.5]];portConstraint=eastwest;whiteSpace=wrap;html=1;" parent="Jh2_Rf79OUwAE3CNvrpS-57" vertex="1">
          <mxGeometry y="104" width="140" height="26" as="geometry" />
        </mxCell>
        <mxCell id="Jh2_Rf79OUwAE3CNvrpS-63" value="- isRead: boolean" style="text;strokeColor=none;fillColor=none;align=left;verticalAlign=top;spacingLeft=4;spacingRight=4;overflow=hidden;rotatable=0;points=[[0,0.5],[1,0.5]];portConstraint=eastwest;whiteSpace=wrap;html=1;" parent="Jh2_Rf79OUwAE3CNvrpS-57" vertex="1">
          <mxGeometry y="130" width="140" height="26" as="geometry" />
        </mxCell>
        <mxCell id="Jh2_Rf79OUwAE3CNvrpS-61" value="- user: &lt;font color=&quot;#d817ff&quot;&gt;User&lt;/font&gt;" style="text;strokeColor=none;fillColor=none;align=left;verticalAlign=top;spacingLeft=4;spacingRight=4;overflow=hidden;rotatable=0;points=[[0,0.5],[1,0.5]];portConstraint=eastwest;whiteSpace=wrap;html=1;" parent="Jh2_Rf79OUwAE3CNvrpS-57" vertex="1">
          <mxGeometry y="156" width="140" height="26" as="geometry" />
        </mxCell>
        <mxCell id="Jh2_Rf79OUwAE3CNvrpS-66" value="" style="edgeStyle=entityRelationEdgeStyle;fontSize=12;html=1;endArrow=ERmany;rounded=0;entryX=1.014;entryY=-0.077;entryDx=0;entryDy=0;entryPerimeter=0;exitX=-0.007;exitY=-0.015;exitDx=0;exitDy=0;exitPerimeter=0;startArrow=ERone;startFill=0;" parent="1" source="Jh2_Rf79OUwAE3CNvrpS-53" target="Jh2_Rf79OUwAE3CNvrpS-58" edge="1">
          <mxGeometry width="100" height="100" relative="1" as="geometry">
            <mxPoint x="260" y="410" as="sourcePoint" />
            <mxPoint x="360" y="310" as="targetPoint" />
          </mxGeometry>
        </mxCell>
        <mxCell id="Jh2_Rf79OUwAE3CNvrpS-67" value="&lt;font color=&quot;#12b500&quot;&gt;Work&lt;/font&gt;" style="swimlane;fontStyle=0;childLayout=stackLayout;horizontal=1;startSize=26;fillColor=none;horizontalStack=0;resizeParent=1;resizeParentMax=0;resizeLast=0;collapsible=1;marginBottom=0;whiteSpace=wrap;html=1;" parent="1" vertex="1">
          <mxGeometry x="660" y="446" width="140" height="208" as="geometry" />
        </mxCell>
        <mxCell id="Jh2_Rf79OUwAE3CNvrpS-68" value="- name: String" style="text;strokeColor=none;fillColor=none;align=left;verticalAlign=top;spacingLeft=4;spacingRight=4;overflow=hidden;rotatable=0;points=[[0,0.5],[1,0.5]];portConstraint=eastwest;whiteSpace=wrap;html=1;" parent="Jh2_Rf79OUwAE3CNvrpS-67" vertex="1">
          <mxGeometry y="26" width="140" height="26" as="geometry" />
        </mxCell>
        <mxCell id="Jh2_Rf79OUwAE3CNvrpS-69" value="- description: String" style="text;strokeColor=none;fillColor=none;align=left;verticalAlign=top;spacingLeft=4;spacingRight=4;overflow=hidden;rotatable=0;points=[[0,0.5],[1,0.5]];portConstraint=eastwest;whiteSpace=wrap;html=1;" parent="Jh2_Rf79OUwAE3CNvrpS-67" vertex="1">
          <mxGeometry y="52" width="140" height="26" as="geometry" />
        </mxCell>
        <mxCell id="Jh2_Rf79OUwAE3CNvrpS-70" value="- price: double" style="text;strokeColor=none;fillColor=none;align=left;verticalAlign=top;spacingLeft=4;spacingRight=4;overflow=hidden;rotatable=0;points=[[0,0.5],[1,0.5]];portConstraint=eastwest;whiteSpace=wrap;html=1;" parent="Jh2_Rf79OUwAE3CNvrpS-67" vertex="1">
          <mxGeometry y="78" width="140" height="26" as="geometry" />
        </mxCell>
        <mxCell id="Jh2_Rf79OUwAE3CNvrpS-71" value="- duration: int" style="text;strokeColor=none;fillColor=none;align=left;verticalAlign=top;spacingLeft=4;spacingRight=4;overflow=hidden;rotatable=0;points=[[0,0.5],[1,0.5]];portConstraint=eastwest;whiteSpace=wrap;html=1;" parent="Jh2_Rf79OUwAE3CNvrpS-67" vertex="1">
          <mxGeometry y="104" width="140" height="26" as="geometry" />
        </mxCell>
        <mxCell id="Jh2_Rf79OUwAE3CNvrpS-72" value="- editable: boolean" style="text;strokeColor=none;fillColor=none;align=left;verticalAlign=top;spacingLeft=4;spacingRight=4;overflow=hidden;rotatable=0;points=[[0,0.5],[1,0.5]];portConstraint=eastwest;whiteSpace=wrap;html=1;" parent="Jh2_Rf79OUwAE3CNvrpS-67" vertex="1">
          <mxGeometry y="130" width="140" height="26" as="geometry" />
        </mxCell>
        <mxCell id="Jh2_Rf79OUwAE3CNvrpS-73" value="- targetCustomer: String" style="text;strokeColor=none;fillColor=none;align=left;verticalAlign=top;spacingLeft=4;spacingRight=4;overflow=hidden;rotatable=0;points=[[0,0.5],[1,0.5]];portConstraint=eastwest;whiteSpace=wrap;html=1;" parent="Jh2_Rf79OUwAE3CNvrpS-67" vertex="1">
          <mxGeometry y="156" width="140" height="26" as="geometry" />
        </mxCell>
        <mxCell id="Jh2_Rf79OUwAE3CNvrpS-74" value="-&amp;nbsp;providers: List&amp;lt;&lt;font color=&quot;#d817ff&quot;&gt;User&lt;/font&gt;&amp;gt;" style="text;strokeColor=none;fillColor=none;align=left;verticalAlign=top;spacingLeft=4;spacingRight=4;overflow=hidden;rotatable=0;points=[[0,0.5],[1,0.5]];portConstraint=eastwest;whiteSpace=wrap;html=1;" parent="Jh2_Rf79OUwAE3CNvrpS-67" vertex="1">
          <mxGeometry y="182" width="140" height="26" as="geometry" />
        </mxCell>
        <mxCell id="Jh2_Rf79OUwAE3CNvrpS-75" value="&lt;font color=&quot;#8e9c13&quot;&gt;ChatMessages&lt;/font&gt;" style="swimlane;fontStyle=0;childLayout=stackLayout;horizontal=1;startSize=26;fillColor=none;horizontalStack=0;resizeParent=1;resizeParentMax=0;resizeLast=0;collapsible=1;marginBottom=0;whiteSpace=wrap;html=1;" parent="1" vertex="1">
          <mxGeometry x="870" y="90" width="180" height="130" as="geometry" />
        </mxCell>
        <mxCell id="Jh2_Rf79OUwAE3CNvrpS-76" value="- createdAt: LocalDateTime" style="text;strokeColor=none;fillColor=none;align=left;verticalAlign=top;spacingLeft=4;spacingRight=4;overflow=hidden;rotatable=0;points=[[0,0.5],[1,0.5]];portConstraint=eastwest;whiteSpace=wrap;html=1;" parent="Jh2_Rf79OUwAE3CNvrpS-75" vertex="1">
          <mxGeometry y="26" width="180" height="26" as="geometry" />
        </mxCell>
        <mxCell id="Jh2_Rf79OUwAE3CNvrpS-77" value="- message: String" style="text;strokeColor=none;fillColor=none;align=left;verticalAlign=top;spacingLeft=4;spacingRight=4;overflow=hidden;rotatable=0;points=[[0,0.5],[1,0.5]];portConstraint=eastwest;whiteSpace=wrap;html=1;" parent="Jh2_Rf79OUwAE3CNvrpS-75" vertex="1">
          <mxGeometry y="52" width="180" height="26" as="geometry" />
        </mxCell>
        <mxCell id="Jh2_Rf79OUwAE3CNvrpS-78" value="- author: &lt;font color=&quot;#d817ff&quot;&gt;User&lt;/font&gt;" style="text;strokeColor=none;fillColor=none;align=left;verticalAlign=top;spacingLeft=4;spacingRight=4;overflow=hidden;rotatable=0;points=[[0,0.5],[1,0.5]];portConstraint=eastwest;whiteSpace=wrap;html=1;" parent="Jh2_Rf79OUwAE3CNvrpS-75" vertex="1">
          <mxGeometry y="78" width="180" height="26" as="geometry" />
        </mxCell>
        <mxCell id="Jh2_Rf79OUwAE3CNvrpS-79" value="- appointment: &lt;font color=&quot;#2008ff&quot;&gt;Appointment&lt;/font&gt;" style="text;strokeColor=none;fillColor=none;align=left;verticalAlign=top;spacingLeft=4;spacingRight=4;overflow=hidden;rotatable=0;points=[[0,0.5],[1,0.5]];portConstraint=eastwest;whiteSpace=wrap;html=1;" parent="Jh2_Rf79OUwAE3CNvrpS-75" vertex="1">
          <mxGeometry y="104" width="180" height="26" as="geometry" />
        </mxCell>
        <mxCell id="Jh2_Rf79OUwAE3CNvrpS-82" value="&lt;b&gt;&lt;font color=&quot;#047500&quot;&gt;Roles&lt;/font&gt;&lt;/b&gt;" style="swimlane;fontStyle=0;childLayout=stackLayout;horizontal=1;startSize=26;fillColor=none;horizontalStack=0;resizeParent=1;resizeParentMax=0;resizeLast=0;collapsible=1;marginBottom=0;whiteSpace=wrap;html=1;" parent="1" vertex="1">
          <mxGeometry x="50" y="530" width="140" height="52" as="geometry" />
        </mxCell>
        <mxCell id="Jh2_Rf79OUwAE3CNvrpS-83" value="- name: String" style="text;strokeColor=none;fillColor=none;align=left;verticalAlign=top;spacingLeft=4;spacingRight=4;overflow=hidden;rotatable=0;points=[[0,0.5],[1,0.5]];portConstraint=eastwest;whiteSpace=wrap;html=1;" parent="Jh2_Rf79OUwAE3CNvrpS-82" vertex="1">
          <mxGeometry y="26" width="140" height="26" as="geometry" />
        </mxCell>
        <mxCell id="Jh2_Rf79OUwAE3CNvrpS-86" value="&lt;font color=&quot;#ff1f4b&quot;&gt;Invoice&lt;/font&gt;" style="swimlane;fontStyle=0;childLayout=stackLayout;horizontal=1;startSize=26;fillColor=none;horizontalStack=0;resizeParent=1;resizeParentMax=0;resizeLast=0;collapsible=1;marginBottom=0;whiteSpace=wrap;html=1;" parent="1" vertex="1">
          <mxGeometry x="870" y="498" width="210" height="156" as="geometry" />
        </mxCell>
        <mxCell id="Jh2_Rf79OUwAE3CNvrpS-87" value="- number: String" style="text;strokeColor=none;fillColor=none;align=left;verticalAlign=top;spacingLeft=4;spacingRight=4;overflow=hidden;rotatable=0;points=[[0,0.5],[1,0.5]];portConstraint=eastwest;whiteSpace=wrap;html=1;" parent="Jh2_Rf79OUwAE3CNvrpS-86" vertex="1">
          <mxGeometry y="26" width="210" height="26" as="geometry" />
        </mxCell>
        <mxCell id="Jh2_Rf79OUwAE3CNvrpS-88" value="- status: String" style="text;strokeColor=none;fillColor=none;align=left;verticalAlign=top;spacingLeft=4;spacingRight=4;overflow=hidden;rotatable=0;points=[[0,0.5],[1,0.5]];portConstraint=eastwest;whiteSpace=wrap;html=1;" parent="Jh2_Rf79OUwAE3CNvrpS-86" vertex="1">
          <mxGeometry y="52" width="210" height="26" as="geometry" />
        </mxCell>
        <mxCell id="Jh2_Rf79OUwAE3CNvrpS-89" value="- totalAmount: double" style="text;strokeColor=none;fillColor=none;align=left;verticalAlign=top;spacingLeft=4;spacingRight=4;overflow=hidden;rotatable=0;points=[[0,0.5],[1,0.5]];portConstraint=eastwest;whiteSpace=wrap;html=1;" parent="Jh2_Rf79OUwAE3CNvrpS-86" vertex="1">
          <mxGeometry y="78" width="210" height="26" as="geometry" />
        </mxCell>
        <mxCell id="Jh2_Rf79OUwAE3CNvrpS-90" value="- issued LocalDateTime" style="text;strokeColor=none;fillColor=none;align=left;verticalAlign=top;spacingLeft=4;spacingRight=4;overflow=hidden;rotatable=0;points=[[0,0.5],[1,0.5]];portConstraint=eastwest;whiteSpace=wrap;html=1;" parent="Jh2_Rf79OUwAE3CNvrpS-86" vertex="1">
          <mxGeometry y="104" width="210" height="26" as="geometry" />
        </mxCell>
        <mxCell id="Jh2_Rf79OUwAE3CNvrpS-91" value="- appointments: List&amp;lt;&lt;font color=&quot;#5e19ff&quot;&gt;Appointment&lt;/font&gt;&amp;gt;" style="text;strokeColor=none;fillColor=none;align=left;verticalAlign=top;spacingLeft=4;spacingRight=4;overflow=hidden;rotatable=0;points=[[0,0.5],[1,0.5]];portConstraint=eastwest;whiteSpace=wrap;html=1;" parent="Jh2_Rf79OUwAE3CNvrpS-86" vertex="1">
          <mxGeometry y="130" width="210" height="26" as="geometry" />
        </mxCell>
        <mxCell id="Jh2_Rf79OUwAE3CNvrpS-92" value="AppointmentStatus" style="swimlane;fontStyle=1;align=center;verticalAlign=middle;childLayout=stackLayout;horizontal=1;startSize=29;horizontalStack=0;resizeParent=1;resizeParentMax=0;resizeLast=0;collapsible=0;marginBottom=0;html=1;whiteSpace=wrap;" parent="1" vertex="1">
          <mxGeometry x="870" y="240" width="180" height="210" as="geometry" />
        </mxCell>
        <mxCell id="Jh2_Rf79OUwAE3CNvrpS-93" value="&amp;lt;&amp;lt;enum&amp;gt;&amp;gt;" style="text;html=1;strokeColor=none;fillColor=none;align=center;verticalAlign=middle;spacingLeft=4;spacingRight=4;overflow=hidden;rotatable=0;points=[[0,0.5],[1,0.5]];portConstraint=eastwest;whiteSpace=wrap;" parent="Jh2_Rf79OUwAE3CNvrpS-92" vertex="1">
          <mxGeometry y="29" width="180" height="25" as="geometry" />
        </mxCell>
        <mxCell id="Jh2_Rf79OUwAE3CNvrpS-94" value="&lt;div style=&quot;&quot;&gt;&lt;pre style=&quot;font-size: 9.8pt;&quot;&gt;&lt;font style=&quot;&quot; face=&quot;Helvetica&quot;&gt;SCHEDULED,&lt;br&gt;&lt;span style=&quot;font-style: italic;&quot;&gt;FINISHED&lt;/span&gt;,&lt;br&gt;&lt;span style=&quot;font-style: italic;&quot;&gt;CONFIRMED&lt;/span&gt;,&lt;br&gt;&lt;span style=&quot;font-style: italic;&quot;&gt;INVOICED&lt;/span&gt;,&lt;br&gt;&lt;span style=&quot;font-style: italic;&quot;&gt;CANCELED&lt;/span&gt;,&lt;br&gt;&lt;span style=&quot;font-style: italic;&quot;&gt;DENIED&lt;/span&gt;,&lt;br&gt;&lt;span style=&quot;font-style: italic;&quot;&gt;REJECTION_REQUESTED&lt;/span&gt;,&lt;br&gt;&lt;span style=&quot;font-style: italic;&quot;&gt;REJECTED&lt;/span&gt;,&lt;br&gt;&lt;span style=&quot;font-style: italic;&quot;&gt;EXCHANGE_REQUESTED&lt;/span&gt;&lt;/font&gt;&lt;/pre&gt;&lt;/div&gt;" style="text;html=1;strokeColor=none;fillColor=none;align=left;verticalAlign=middle;spacingLeft=4;spacingRight=4;overflow=hidden;rotatable=0;points=[[0,0.5],[1,0.5]];portConstraint=eastwest;whiteSpace=wrap;" parent="Jh2_Rf79OUwAE3CNvrpS-92" vertex="1">
          <mxGeometry y="54" width="180" height="156" as="geometry" />
        </mxCell>
        <mxCell id="Jh2_Rf79OUwAE3CNvrpS-99" value="&lt;font color=&quot;#a1c200&quot;&gt;Provider&lt;/font&gt;" style="swimlane;fontStyle=0;childLayout=stackLayout;horizontal=1;startSize=26;fillColor=none;horizontalStack=0;resizeParent=1;resizeParentMax=0;resizeLast=0;collapsible=1;marginBottom=0;whiteSpace=wrap;html=1;" parent="1" vertex="1">
          <mxGeometry x="570" y="790" width="240" height="104" as="geometry" />
        </mxCell>
        <mxCell id="Jh2_Rf79OUwAE3CNvrpS-100" value="- appointments: List&amp;lt;Appointment&amp;gt;" style="text;strokeColor=none;fillColor=none;align=left;verticalAlign=top;spacingLeft=4;spacingRight=4;overflow=hidden;rotatable=0;points=[[0,0.5],[1,0.5]];portConstraint=eastwest;whiteSpace=wrap;html=1;" parent="Jh2_Rf79OUwAE3CNvrpS-99" vertex="1">
          <mxGeometry y="26" width="240" height="26" as="geometry" />
        </mxCell>
        <mxCell id="Jh2_Rf79OUwAE3CNvrpS-101" value="- works: List&amp;lt;&lt;font color=&quot;#12b500&quot;&gt;Work&lt;/font&gt;&amp;gt;" style="text;strokeColor=none;fillColor=none;align=left;verticalAlign=top;spacingLeft=4;spacingRight=4;overflow=hidden;rotatable=0;points=[[0,0.5],[1,0.5]];portConstraint=eastwest;whiteSpace=wrap;html=1;" parent="Jh2_Rf79OUwAE3CNvrpS-99" vertex="1">
          <mxGeometry y="52" width="240" height="26" as="geometry" />
        </mxCell>
        <mxCell id="Jh2_Rf79OUwAE3CNvrpS-102" value="- workingPlan: WorkingPlan" style="text;strokeColor=none;fillColor=none;align=left;verticalAlign=top;spacingLeft=4;spacingRight=4;overflow=hidden;rotatable=0;points=[[0,0.5],[1,0.5]];portConstraint=eastwest;whiteSpace=wrap;html=1;" parent="Jh2_Rf79OUwAE3CNvrpS-99" vertex="1">
          <mxGeometry y="78" width="240" height="26" as="geometry" />
        </mxCell>
        <mxCell id="Jh2_Rf79OUwAE3CNvrpS-104" value="&amp;lt;&amp;lt;extend&amp;gt;&amp;gt;" style="html=1;verticalAlign=bottom;labelBackgroundColor=none;endArrow=open;endFill=0;dashed=1;rounded=0;entryX=0;entryY=0.25;entryDx=0;entryDy=0;" parent="1" source="Jh2_Rf79OUwAE3CNvrpS-38" target="Jh2_Rf79OUwAE3CNvrpS-99" edge="1">
          <mxGeometry width="160" relative="1" as="geometry">
            <mxPoint x="480" y="720" as="sourcePoint" />
            <mxPoint x="640" y="720" as="targetPoint" />
            <Array as="points">
              <mxPoint x="393" y="816" />
            </Array>
          </mxGeometry>
        </mxCell>
        <mxCell id="Jh2_Rf79OUwAE3CNvrpS-105" value="BaseEntity" style="swimlane;fontStyle=0;childLayout=stackLayout;horizontal=1;startSize=26;fillColor=none;horizontalStack=0;resizeParent=1;resizeParentMax=0;resizeLast=0;collapsible=1;marginBottom=0;whiteSpace=wrap;html=1;" parent="1" vertex="1">
          <mxGeometry x="285" y="90" width="215" height="52" as="geometry" />
        </mxCell>
        <mxCell id="Jh2_Rf79OUwAE3CNvrpS-106" value="- id: Integer" style="text;strokeColor=none;fillColor=none;align=left;verticalAlign=top;spacingLeft=4;spacingRight=4;overflow=hidden;rotatable=0;points=[[0,0.5],[1,0.5]];portConstraint=eastwest;whiteSpace=wrap;html=1;" parent="Jh2_Rf79OUwAE3CNvrpS-105" vertex="1">
          <mxGeometry y="26" width="215" height="26" as="geometry" />
        </mxCell>
        <mxCell id="Jh2_Rf79OUwAE3CNvrpS-109" value="&lt;font color=&quot;#4bab52&quot;&gt;ExchangeRequest&lt;/font&gt;" style="swimlane;fontStyle=0;childLayout=stackLayout;horizontal=1;startSize=26;fillColor=none;horizontalStack=0;resizeParent=1;resizeParentMax=0;resizeLast=0;collapsible=1;marginBottom=0;whiteSpace=wrap;html=1;" parent="1" vertex="1">
          <mxGeometry x="50" y="630" width="180" height="104" as="geometry" />
        </mxCell>
        <mxCell id="Jh2_Rf79OUwAE3CNvrpS-110" value="- status: ExchangeStatus" style="text;strokeColor=none;fillColor=none;align=left;verticalAlign=top;spacingLeft=4;spacingRight=4;overflow=hidden;rotatable=0;points=[[0,0.5],[1,0.5]];portConstraint=eastwest;whiteSpace=wrap;html=1;" parent="Jh2_Rf79OUwAE3CNvrpS-109" vertex="1">
          <mxGeometry y="26" width="180" height="26" as="geometry" />
        </mxCell>
        <mxCell id="Jh2_Rf79OUwAE3CNvrpS-111" value="- requestor: Appointment" style="text;strokeColor=none;fillColor=none;align=left;verticalAlign=top;spacingLeft=4;spacingRight=4;overflow=hidden;rotatable=0;points=[[0,0.5],[1,0.5]];portConstraint=eastwest;whiteSpace=wrap;html=1;" parent="Jh2_Rf79OUwAE3CNvrpS-109" vertex="1">
          <mxGeometry y="52" width="180" height="26" as="geometry" />
        </mxCell>
        <mxCell id="Jh2_Rf79OUwAE3CNvrpS-112" value="- requested: Appointment" style="text;strokeColor=none;fillColor=none;align=left;verticalAlign=top;spacingLeft=4;spacingRight=4;overflow=hidden;rotatable=0;points=[[0,0.5],[1,0.5]];portConstraint=eastwest;whiteSpace=wrap;html=1;" parent="Jh2_Rf79OUwAE3CNvrpS-109" vertex="1">
          <mxGeometry y="78" width="180" height="26" as="geometry" />
        </mxCell>
        <mxCell id="Jh2_Rf79OUwAE3CNvrpS-113" value="ExchangeStatus" style="swimlane;fontStyle=1;align=center;verticalAlign=middle;childLayout=stackLayout;horizontal=1;startSize=29;horizontalStack=0;resizeParent=1;resizeParentMax=0;resizeLast=0;collapsible=0;marginBottom=0;html=1;whiteSpace=wrap;" parent="1" vertex="1">
          <mxGeometry x="50" y="760" width="140" height="140" as="geometry" />
        </mxCell>
        <mxCell id="Jh2_Rf79OUwAE3CNvrpS-114" value="&amp;lt;&amp;lt;enum&amp;gt;&amp;gt;" style="text;html=1;strokeColor=none;fillColor=none;align=center;verticalAlign=middle;spacingLeft=4;spacingRight=4;overflow=hidden;rotatable=0;points=[[0,0.5],[1,0.5]];portConstraint=eastwest;whiteSpace=wrap;" parent="Jh2_Rf79OUwAE3CNvrpS-113" vertex="1">
          <mxGeometry y="29" width="140" height="25" as="geometry" />
        </mxCell>
        <mxCell id="Jh2_Rf79OUwAE3CNvrpS-115" value="&lt;div style=&quot;&quot;&gt;&lt;pre style=&quot;font-size: 9.8pt;&quot;&gt;&lt;div style=&quot;&quot;&gt;&lt;pre style=&quot;font-size: 9.8pt;&quot;&gt;&lt;font color=&quot;#0a0a0a&quot; style=&quot;&quot; face=&quot;Helvetica&quot;&gt;PENDING,&lt;br&gt;&lt;span style=&quot;font-style: italic;&quot;&gt;ACCEPTED&lt;/span&gt;,&lt;br&gt;&lt;span style=&quot;font-style: italic;&quot;&gt;REJECTED&lt;/span&gt;,&lt;br&gt;&lt;span style=&quot;font-style: italic;&quot;&gt;EXPIRED&lt;/span&gt;&lt;/font&gt;&lt;/pre&gt;&lt;/div&gt;&lt;/pre&gt;&lt;/div&gt;" style="text;html=1;strokeColor=none;fillColor=none;align=left;verticalAlign=middle;spacingLeft=4;spacingRight=4;overflow=hidden;rotatable=0;points=[[0,0.5],[1,0.5]];portConstraint=eastwest;whiteSpace=wrap;" parent="Jh2_Rf79OUwAE3CNvrpS-113" vertex="1">
          <mxGeometry y="54" width="140" height="86" as="geometry" />
        </mxCell>
        <mxCell id="Jh2_Rf79OUwAE3CNvrpS-116" value="&lt;b&gt;&lt;font color=&quot;#ffa200&quot;&gt;WorkingPlan&lt;/font&gt;&lt;/b&gt;" style="swimlane;fontStyle=0;childLayout=stackLayout;horizontal=1;startSize=26;fillColor=none;horizontalStack=0;resizeParent=1;resizeParentMax=0;resizeLast=0;collapsible=1;marginBottom=0;whiteSpace=wrap;html=1;" parent="1" vertex="1">
          <mxGeometry x="870" y="700" width="140" height="260" as="geometry" />
        </mxCell>
        <mxCell id="Jh2_Rf79OUwAE3CNvrpS-117" value="&lt;b&gt;- id: int&lt;/b&gt;" style="text;strokeColor=none;fillColor=none;align=left;verticalAlign=top;spacingLeft=4;spacingRight=4;overflow=hidden;rotatable=0;points=[[0,0.5],[1,0.5]];portConstraint=eastwest;whiteSpace=wrap;html=1;" parent="Jh2_Rf79OUwAE3CNvrpS-116" vertex="1">
          <mxGeometry y="26" width="140" height="26" as="geometry" />
        </mxCell>
        <mxCell id="Jh2_Rf79OUwAE3CNvrpS-118" value="- provider: &lt;font color=&quot;#a1c200&quot;&gt;Provider&lt;/font&gt;" style="text;strokeColor=none;fillColor=none;align=left;verticalAlign=top;spacingLeft=4;spacingRight=4;overflow=hidden;rotatable=0;points=[[0,0.5],[1,0.5]];portConstraint=eastwest;whiteSpace=wrap;html=1;" parent="Jh2_Rf79OUwAE3CNvrpS-116" vertex="1">
          <mxGeometry y="52" width="140" height="26" as="geometry" />
        </mxCell>
        <mxCell id="Jh2_Rf79OUwAE3CNvrpS-119" value="- monday: DayPlan" style="text;strokeColor=none;fillColor=none;align=left;verticalAlign=top;spacingLeft=4;spacingRight=4;overflow=hidden;rotatable=0;points=[[0,0.5],[1,0.5]];portConstraint=eastwest;whiteSpace=wrap;html=1;" parent="Jh2_Rf79OUwAE3CNvrpS-116" vertex="1">
          <mxGeometry y="78" width="140" height="26" as="geometry" />
        </mxCell>
        <mxCell id="Jh2_Rf79OUwAE3CNvrpS-120" value="- tuesday: DayPlan" style="text;strokeColor=none;fillColor=none;align=left;verticalAlign=top;spacingLeft=4;spacingRight=4;overflow=hidden;rotatable=0;points=[[0,0.5],[1,0.5]];portConstraint=eastwest;whiteSpace=wrap;html=1;" parent="Jh2_Rf79OUwAE3CNvrpS-116" vertex="1">
          <mxGeometry y="104" width="140" height="26" as="geometry" />
        </mxCell>
        <mxCell id="Jh2_Rf79OUwAE3CNvrpS-121" value="- webnesday: DayPlan" style="text;strokeColor=none;fillColor=none;align=left;verticalAlign=top;spacingLeft=4;spacingRight=4;overflow=hidden;rotatable=0;points=[[0,0.5],[1,0.5]];portConstraint=eastwest;whiteSpace=wrap;html=1;" parent="Jh2_Rf79OUwAE3CNvrpS-116" vertex="1">
          <mxGeometry y="130" width="140" height="26" as="geometry" />
        </mxCell>
        <mxCell id="Jh2_Rf79OUwAE3CNvrpS-122" value="- thursday: DayPlan" style="text;strokeColor=none;fillColor=none;align=left;verticalAlign=top;spacingLeft=4;spacingRight=4;overflow=hidden;rotatable=0;points=[[0,0.5],[1,0.5]];portConstraint=eastwest;whiteSpace=wrap;html=1;" parent="Jh2_Rf79OUwAE3CNvrpS-116" vertex="1">
          <mxGeometry y="156" width="140" height="26" as="geometry" />
        </mxCell>
        <mxCell id="Jh2_Rf79OUwAE3CNvrpS-123" value="- friday: DayPlan" style="text;strokeColor=none;fillColor=none;align=left;verticalAlign=top;spacingLeft=4;spacingRight=4;overflow=hidden;rotatable=0;points=[[0,0.5],[1,0.5]];portConstraint=eastwest;whiteSpace=wrap;html=1;" parent="Jh2_Rf79OUwAE3CNvrpS-116" vertex="1">
          <mxGeometry y="182" width="140" height="26" as="geometry" />
        </mxCell>
        <mxCell id="Jh2_Rf79OUwAE3CNvrpS-124" value="- saturday: DayPlan" style="text;strokeColor=none;fillColor=none;align=left;verticalAlign=top;spacingLeft=4;spacingRight=4;overflow=hidden;rotatable=0;points=[[0,0.5],[1,0.5]];portConstraint=eastwest;whiteSpace=wrap;html=1;" parent="Jh2_Rf79OUwAE3CNvrpS-116" vertex="1">
          <mxGeometry y="208" width="140" height="26" as="geometry" />
        </mxCell>
        <mxCell id="Jh2_Rf79OUwAE3CNvrpS-126" value="- sunday: DayPlan" style="text;strokeColor=none;fillColor=none;align=left;verticalAlign=top;spacingLeft=4;spacingRight=4;overflow=hidden;rotatable=0;points=[[0,0.5],[1,0.5]];portConstraint=eastwest;whiteSpace=wrap;html=1;" parent="Jh2_Rf79OUwAE3CNvrpS-116" vertex="1">
          <mxGeometry y="234" width="140" height="26" as="geometry" />
        </mxCell>
        <mxCell id="Jh2_Rf79OUwAE3CNvrpS-128" value="Entity" style="text;html=1;strokeColor=none;fillColor=none;align=center;verticalAlign=middle;whiteSpace=wrap;rounded=0;" parent="1" vertex="1">
          <mxGeometry x="10" y="30" width="60" height="30" as="geometry" />
        </mxCell>
        <mxCell id="Jh2_Rf79OUwAE3CNvrpS-130" value="&amp;lt;&amp;lt;extend&amp;gt;&amp;gt;" style="html=1;verticalAlign=bottom;labelBackgroundColor=none;endArrow=open;endFill=0;dashed=1;rounded=0;" parent="1" source="Jh2_Rf79OUwAE3CNvrpS-105" target="Jh2_Rf79OUwAE3CNvrpS-24" edge="1">
          <mxGeometry width="160" relative="1" as="geometry">
            <mxPoint x="480" y="380" as="sourcePoint" />
            <mxPoint x="640" y="380" as="targetPoint" />
            <Array as="points">
              <mxPoint x="393" y="40" />
              <mxPoint x="690" y="40" />
            </Array>
          </mxGeometry>
        </mxCell>
        <mxCell id="Jh2_Rf79OUwAE3CNvrpS-131" value="&amp;lt;&amp;lt;extend&amp;gt;&amp;gt;" style="html=1;verticalAlign=bottom;labelBackgroundColor=none;endArrow=open;endFill=0;dashed=1;rounded=0;entryX=0.5;entryY=0;entryDx=0;entryDy=0;" parent="1" source="Jh2_Rf79OUwAE3CNvrpS-105" target="Jh2_Rf79OUwAE3CNvrpS-38" edge="1">
          <mxGeometry width="160" relative="1" as="geometry">
            <mxPoint x="480" y="250" as="sourcePoint" />
            <mxPoint x="640" y="250" as="targetPoint" />
          </mxGeometry>
        </mxCell>
        <mxCell id="Jh2_Rf79OUwAE3CNvrpS-132" value="&amp;lt;&amp;lt;extend&amp;gt;&amp;gt;" style="html=1;verticalAlign=bottom;labelBackgroundColor=none;endArrow=open;endFill=0;dashed=1;rounded=0;entryX=0;entryY=0.5;entryDx=0;entryDy=0;" parent="1" source="Jh2_Rf79OUwAE3CNvrpS-105" target="Jh2_Rf79OUwAE3CNvrpS-71" edge="1">
          <mxGeometry width="160" relative="1" as="geometry">
            <mxPoint x="480" y="380" as="sourcePoint" />
            <mxPoint x="640" y="380" as="targetPoint" />
            <Array as="points">
              <mxPoint x="393" y="180" />
              <mxPoint x="560" y="180" />
              <mxPoint x="560" y="560" />
            </Array>
          </mxGeometry>
        </mxCell>
        <mxCell id="Jh2_Rf79OUwAE3CNvrpS-133" value="&amp;lt;&amp;lt;extend&amp;gt;&amp;gt;" style="html=1;verticalAlign=bottom;labelBackgroundColor=none;endArrow=open;endFill=0;dashed=1;rounded=0;entryX=0.387;entryY=0.023;entryDx=0;entryDy=0;entryPerimeter=0;" parent="1" source="Jh2_Rf79OUwAE3CNvrpS-105" target="Jh2_Rf79OUwAE3CNvrpS-75" edge="1">
          <mxGeometry width="160" relative="1" as="geometry">
            <mxPoint x="480" y="250" as="sourcePoint" />
            <mxPoint x="640" y="250" as="targetPoint" />
            <Array as="points">
              <mxPoint x="393" y="20" />
              <mxPoint x="940" y="20" />
            </Array>
          </mxGeometry>
        </mxCell>
        <mxCell id="Jh2_Rf79OUwAE3CNvrpS-95" value="&lt;font color=&quot;#1443ff&quot;&gt;Customer&lt;/font&gt;" style="swimlane;fontStyle=0;childLayout=stackLayout;horizontal=1;startSize=26;fillColor=none;horizontalStack=0;resizeParent=1;resizeParentMax=0;resizeLast=0;collapsible=1;marginBottom=0;whiteSpace=wrap;html=1;" parent="1" vertex="1">
          <mxGeometry x="10" y="210" width="210" height="52" as="geometry" />
        </mxCell>
        <mxCell id="Jh2_Rf79OUwAE3CNvrpS-96" value="- appointments: List&amp;lt;Appointment&amp;gt;" style="text;strokeColor=none;fillColor=none;align=left;verticalAlign=top;spacingLeft=4;spacingRight=4;overflow=hidden;rotatable=0;points=[[0,0.5],[1,0.5]];portConstraint=eastwest;whiteSpace=wrap;html=1;" parent="Jh2_Rf79OUwAE3CNvrpS-95" vertex="1">
          <mxGeometry y="26" width="210" height="26" as="geometry" />
        </mxCell>
        <mxCell id="Jh2_Rf79OUwAE3CNvrpS-134" value="&amp;lt;&amp;lt;extend&amp;gt;&amp;gt;" style="html=1;verticalAlign=bottom;labelBackgroundColor=none;endArrow=open;endFill=0;dashed=1;rounded=0;exitX=-0.006;exitY=0.047;exitDx=0;exitDy=0;exitPerimeter=0;entryX=1;entryY=0.25;entryDx=0;entryDy=0;" parent="1" source="Jh2_Rf79OUwAE3CNvrpS-38" target="Jh2_Rf79OUwAE3CNvrpS-95" edge="1">
          <mxGeometry width="160" relative="1" as="geometry">
            <mxPoint x="480" y="540" as="sourcePoint" />
            <mxPoint x="190" y="220" as="targetPoint" />
          </mxGeometry>
        </mxCell>
        <mxCell id="Jh2_Rf79OUwAE3CNvrpS-137" value="&amp;lt;&amp;lt;extend&amp;gt;&amp;gt;" style="html=1;verticalAlign=bottom;labelBackgroundColor=none;endArrow=open;endFill=0;dashed=1;rounded=0;" parent="1" source="Jh2_Rf79OUwAE3CNvrpS-95" target="Jh2_Rf79OUwAE3CNvrpS-9" edge="1">
          <mxGeometry width="160" relative="1" as="geometry">
            <mxPoint x="480" y="290" as="sourcePoint" />
            <mxPoint x="640" y="290" as="targetPoint" />
          </mxGeometry>
        </mxCell>
        <mxCell id="Jh2_Rf79OUwAE3CNvrpS-138" value="RetailCustomer" style="swimlane;fontStyle=0;childLayout=stackLayout;horizontal=1;startSize=26;fillColor=none;horizontalStack=0;resizeParent=1;resizeParentMax=0;resizeLast=0;collapsible=1;marginBottom=0;whiteSpace=wrap;html=1;" parent="1" vertex="1">
          <mxGeometry x="-190" y="210" width="140" height="52" as="geometry" />
        </mxCell>
        <mxCell id="Jh2_Rf79OUwAE3CNvrpS-142" value="&amp;lt;&amp;lt;extend&amp;gt;&amp;gt;" style="html=1;verticalAlign=bottom;labelBackgroundColor=none;endArrow=open;endFill=0;dashed=1;rounded=0;entryX=1;entryY=0.5;entryDx=0;entryDy=0;" parent="1" target="Jh2_Rf79OUwAE3CNvrpS-138" edge="1">
          <mxGeometry width="160" relative="1" as="geometry">
            <mxPoint x="10" y="230" as="sourcePoint" />
            <mxPoint x="590" y="390" as="targetPoint" />
          </mxGeometry>
        </mxCell>
        <mxCell id="jJldL7cJ4zt6Rgu3-QxA-1" value="DayPlan" style="swimlane;fontStyle=0;childLayout=stackLayout;horizontal=1;startSize=26;fillColor=none;horizontalStack=0;resizeParent=1;resizeParentMax=0;resizeLast=0;collapsible=1;marginBottom=0;whiteSpace=wrap;html=1;" vertex="1" parent="1">
          <mxGeometry x="1200" y="90" width="195" height="78" as="geometry" />
        </mxCell>
        <mxCell id="jJldL7cJ4zt6Rgu3-QxA-2" value="- workingHours: TimePeriod" style="text;strokeColor=none;fillColor=none;align=left;verticalAlign=top;spacingLeft=4;spacingRight=4;overflow=hidden;rotatable=0;points=[[0,0.5],[1,0.5]];portConstraint=eastwest;whiteSpace=wrap;html=1;" vertex="1" parent="jJldL7cJ4zt6Rgu3-QxA-1">
          <mxGeometry y="26" width="195" height="26" as="geometry" />
        </mxCell>
        <mxCell id="jJldL7cJ4zt6Rgu3-QxA-3" value="- breaks: List&amp;lt;TimePeriod&amp;gt;" style="text;strokeColor=none;fillColor=none;align=left;verticalAlign=top;spacingLeft=4;spacingRight=4;overflow=hidden;rotatable=0;points=[[0,0.5],[1,0.5]];portConstraint=eastwest;whiteSpace=wrap;html=1;" vertex="1" parent="jJldL7cJ4zt6Rgu3-QxA-1">
          <mxGeometry y="52" width="195" height="26" as="geometry" />
        </mxCell>
        <mxCell id="jJldL7cJ4zt6Rgu3-QxA-8" value="TimePeriod" style="swimlane;fontStyle=0;childLayout=stackLayout;horizontal=1;startSize=26;fillColor=none;horizontalStack=0;resizeParent=1;resizeParentMax=0;resizeLast=0;collapsible=1;marginBottom=0;whiteSpace=wrap;html=1;" vertex="1" parent="1">
          <mxGeometry x="1200" y="210" width="140" height="78" as="geometry" />
        </mxCell>
        <mxCell id="jJldL7cJ4zt6Rgu3-QxA-9" value="- start: LocalTime" style="text;strokeColor=none;fillColor=none;align=left;verticalAlign=top;spacingLeft=4;spacingRight=4;overflow=hidden;rotatable=0;points=[[0,0.5],[1,0.5]];portConstraint=eastwest;whiteSpace=wrap;html=1;" vertex="1" parent="jJldL7cJ4zt6Rgu3-QxA-8">
          <mxGeometry y="26" width="140" height="26" as="geometry" />
        </mxCell>
        <mxCell id="jJldL7cJ4zt6Rgu3-QxA-10" value="- end: LocalTime" style="text;strokeColor=none;fillColor=none;align=left;verticalAlign=top;spacingLeft=4;spacingRight=4;overflow=hidden;rotatable=0;points=[[0,0.5],[1,0.5]];portConstraint=eastwest;whiteSpace=wrap;html=1;" vertex="1" parent="jJldL7cJ4zt6Rgu3-QxA-8">
          <mxGeometry y="52" width="140" height="26" as="geometry" />
        </mxCell>
        <mxCell id="jJldL7cJ4zt6Rgu3-QxA-12" value="UserForm" style="swimlane;fontStyle=0;childLayout=stackLayout;horizontal=1;startSize=26;fillColor=none;horizontalStack=0;resizeParent=1;resizeParentMax=0;resizeLast=0;collapsible=1;marginBottom=0;whiteSpace=wrap;html=1;" vertex="1" parent="1">
          <mxGeometry x="1200" y="361" width="190" height="390" as="geometry" />
        </mxCell>
        <mxCell id="jJldL7cJ4zt6Rgu3-QxA-13" value="- id: int" style="text;strokeColor=none;fillColor=none;align=left;verticalAlign=top;spacingLeft=4;spacingRight=4;overflow=hidden;rotatable=0;points=[[0,0.5],[1,0.5]];portConstraint=eastwest;whiteSpace=wrap;html=1;" vertex="1" parent="jJldL7cJ4zt6Rgu3-QxA-12">
          <mxGeometry y="26" width="190" height="26" as="geometry" />
        </mxCell>
        <mxCell id="jJldL7cJ4zt6Rgu3-QxA-14" value="- userName: String" style="text;strokeColor=none;fillColor=none;align=left;verticalAlign=top;spacingLeft=4;spacingRight=4;overflow=hidden;rotatable=0;points=[[0,0.5],[1,0.5]];portConstraint=eastwest;whiteSpace=wrap;html=1;" vertex="1" parent="jJldL7cJ4zt6Rgu3-QxA-12">
          <mxGeometry y="52" width="190" height="26" as="geometry" />
        </mxCell>
        <mxCell id="jJldL7cJ4zt6Rgu3-QxA-15" value="- password: String" style="text;strokeColor=none;fillColor=none;align=left;verticalAlign=top;spacingLeft=4;spacingRight=4;overflow=hidden;rotatable=0;points=[[0,0.5],[1,0.5]];portConstraint=eastwest;whiteSpace=wrap;html=1;" vertex="1" parent="jJldL7cJ4zt6Rgu3-QxA-12">
          <mxGeometry y="78" width="190" height="26" as="geometry" />
        </mxCell>
        <mxCell id="jJldL7cJ4zt6Rgu3-QxA-20" value="- matchingPassword: String" style="text;strokeColor=none;fillColor=none;align=left;verticalAlign=top;spacingLeft=4;spacingRight=4;overflow=hidden;rotatable=0;points=[[0,0.5],[1,0.5]];portConstraint=eastwest;whiteSpace=wrap;html=1;" vertex="1" parent="jJldL7cJ4zt6Rgu3-QxA-12">
          <mxGeometry y="104" width="190" height="26" as="geometry" />
        </mxCell>
        <mxCell id="jJldL7cJ4zt6Rgu3-QxA-21" value="- firstName: String" style="text;strokeColor=none;fillColor=none;align=left;verticalAlign=top;spacingLeft=4;spacingRight=4;overflow=hidden;rotatable=0;points=[[0,0.5],[1,0.5]];portConstraint=eastwest;whiteSpace=wrap;html=1;" vertex="1" parent="jJldL7cJ4zt6Rgu3-QxA-12">
          <mxGeometry y="130" width="190" height="26" as="geometry" />
        </mxCell>
        <mxCell id="jJldL7cJ4zt6Rgu3-QxA-22" value="- lastName: String&lt;span style=&quot;white-space: pre;&quot;&gt;&#x9;&lt;/span&gt;" style="text;strokeColor=none;fillColor=none;align=left;verticalAlign=top;spacingLeft=4;spacingRight=4;overflow=hidden;rotatable=0;points=[[0,0.5],[1,0.5]];portConstraint=eastwest;whiteSpace=wrap;html=1;" vertex="1" parent="jJldL7cJ4zt6Rgu3-QxA-12">
          <mxGeometry y="156" width="190" height="26" as="geometry" />
        </mxCell>
        <mxCell id="jJldL7cJ4zt6Rgu3-QxA-23" value="- email: String" style="text;strokeColor=none;fillColor=none;align=left;verticalAlign=top;spacingLeft=4;spacingRight=4;overflow=hidden;rotatable=0;points=[[0,0.5],[1,0.5]];portConstraint=eastwest;whiteSpace=wrap;html=1;" vertex="1" parent="jJldL7cJ4zt6Rgu3-QxA-12">
          <mxGeometry y="182" width="190" height="26" as="geometry" />
        </mxCell>
        <mxCell id="jJldL7cJ4zt6Rgu3-QxA-24" value="- mobile: String" style="text;strokeColor=none;fillColor=none;align=left;verticalAlign=top;spacingLeft=4;spacingRight=4;overflow=hidden;rotatable=0;points=[[0,0.5],[1,0.5]];portConstraint=eastwest;whiteSpace=wrap;html=1;" vertex="1" parent="jJldL7cJ4zt6Rgu3-QxA-12">
          <mxGeometry y="208" width="190" height="26" as="geometry" />
        </mxCell>
        <mxCell id="jJldL7cJ4zt6Rgu3-QxA-25" value="- street: String" style="text;strokeColor=none;fillColor=none;align=left;verticalAlign=top;spacingLeft=4;spacingRight=4;overflow=hidden;rotatable=0;points=[[0,0.5],[1,0.5]];portConstraint=eastwest;whiteSpace=wrap;html=1;" vertex="1" parent="jJldL7cJ4zt6Rgu3-QxA-12">
          <mxGeometry y="234" width="190" height="26" as="geometry" />
        </mxCell>
        <mxCell id="jJldL7cJ4zt6Rgu3-QxA-26" value="- postcode: String" style="text;strokeColor=none;fillColor=none;align=left;verticalAlign=top;spacingLeft=4;spacingRight=4;overflow=hidden;rotatable=0;points=[[0,0.5],[1,0.5]];portConstraint=eastwest;whiteSpace=wrap;html=1;" vertex="1" parent="jJldL7cJ4zt6Rgu3-QxA-12">
          <mxGeometry y="260" width="190" height="26" as="geometry" />
        </mxCell>
        <mxCell id="jJldL7cJ4zt6Rgu3-QxA-27" value="- city: String" style="text;strokeColor=none;fillColor=none;align=left;verticalAlign=top;spacingLeft=4;spacingRight=4;overflow=hidden;rotatable=0;points=[[0,0.5],[1,0.5]];portConstraint=eastwest;whiteSpace=wrap;html=1;" vertex="1" parent="jJldL7cJ4zt6Rgu3-QxA-12">
          <mxGeometry y="286" width="190" height="26" as="geometry" />
        </mxCell>
        <mxCell id="jJldL7cJ4zt6Rgu3-QxA-28" value="- companyName: String" style="text;strokeColor=none;fillColor=none;align=left;verticalAlign=top;spacingLeft=4;spacingRight=4;overflow=hidden;rotatable=0;points=[[0,0.5],[1,0.5]];portConstraint=eastwest;whiteSpace=wrap;html=1;" vertex="1" parent="jJldL7cJ4zt6Rgu3-QxA-12">
          <mxGeometry y="312" width="190" height="26" as="geometry" />
        </mxCell>
        <mxCell id="jJldL7cJ4zt6Rgu3-QxA-29" value="- vatNumber: String" style="text;strokeColor=none;fillColor=none;align=left;verticalAlign=top;spacingLeft=4;spacingRight=4;overflow=hidden;rotatable=0;points=[[0,0.5],[1,0.5]];portConstraint=eastwest;whiteSpace=wrap;html=1;" vertex="1" parent="jJldL7cJ4zt6Rgu3-QxA-12">
          <mxGeometry y="338" width="190" height="26" as="geometry" />
        </mxCell>
        <mxCell id="jJldL7cJ4zt6Rgu3-QxA-30" value="- works: List&amp;lt;&lt;font color=&quot;#12b500&quot;&gt;Work&lt;/font&gt;&amp;gt;" style="text;strokeColor=none;fillColor=none;align=left;verticalAlign=top;spacingLeft=4;spacingRight=4;overflow=hidden;rotatable=0;points=[[0,0.5],[1,0.5]];portConstraint=eastwest;whiteSpace=wrap;html=1;" vertex="1" parent="jJldL7cJ4zt6Rgu3-QxA-12">
          <mxGeometry y="364" width="190" height="26" as="geometry" />
        </mxCell>
        <mxCell id="jJldL7cJ4zt6Rgu3-QxA-16" value="ChangePasswordForm" style="swimlane;fontStyle=0;childLayout=stackLayout;horizontal=1;startSize=26;fillColor=none;horizontalStack=0;resizeParent=1;resizeParentMax=0;resizeLast=0;collapsible=1;marginBottom=0;whiteSpace=wrap;html=1;" vertex="1" parent="1">
          <mxGeometry x="1200" y="820" width="190" height="130" as="geometry" />
        </mxCell>
        <mxCell id="jJldL7cJ4zt6Rgu3-QxA-17" value="- id: int" style="text;strokeColor=none;fillColor=none;align=left;verticalAlign=top;spacingLeft=4;spacingRight=4;overflow=hidden;rotatable=0;points=[[0,0.5],[1,0.5]];portConstraint=eastwest;whiteSpace=wrap;html=1;" vertex="1" parent="jJldL7cJ4zt6Rgu3-QxA-16">
          <mxGeometry y="26" width="190" height="26" as="geometry" />
        </mxCell>
        <mxCell id="jJldL7cJ4zt6Rgu3-QxA-18" value="- password: String" style="text;strokeColor=none;fillColor=none;align=left;verticalAlign=top;spacingLeft=4;spacingRight=4;overflow=hidden;rotatable=0;points=[[0,0.5],[1,0.5]];portConstraint=eastwest;whiteSpace=wrap;html=1;" vertex="1" parent="jJldL7cJ4zt6Rgu3-QxA-16">
          <mxGeometry y="52" width="190" height="26" as="geometry" />
        </mxCell>
        <mxCell id="jJldL7cJ4zt6Rgu3-QxA-19" value="- matchingPassword: String" style="text;strokeColor=none;fillColor=none;align=left;verticalAlign=top;spacingLeft=4;spacingRight=4;overflow=hidden;rotatable=0;points=[[0,0.5],[1,0.5]];portConstraint=eastwest;whiteSpace=wrap;html=1;" vertex="1" parent="jJldL7cJ4zt6Rgu3-QxA-16">
          <mxGeometry y="78" width="190" height="26" as="geometry" />
        </mxCell>
        <mxCell id="jJldL7cJ4zt6Rgu3-QxA-31" value="- currentPassword: String" style="text;strokeColor=none;fillColor=none;align=left;verticalAlign=top;spacingLeft=4;spacingRight=4;overflow=hidden;rotatable=0;points=[[0,0.5],[1,0.5]];portConstraint=eastwest;whiteSpace=wrap;html=1;" vertex="1" parent="jJldL7cJ4zt6Rgu3-QxA-16">
          <mxGeometry y="104" width="190" height="26" as="geometry" />
        </mxCell>
        <mxCell id="jJldL7cJ4zt6Rgu3-QxA-32" value="&lt;div style=&quot;&quot;&gt;&lt;pre style=&quot;font-size: 9.8pt;&quot;&gt;&lt;font face=&quot;Helvetica&quot; style=&quot;&quot; color=&quot;#0a0a0a&quot;&gt;AppointmentSerializer&lt;/font&gt;&lt;/pre&gt;&lt;/div&gt;" style="swimlane;fontStyle=0;childLayout=stackLayout;horizontal=1;startSize=26;fillColor=none;horizontalStack=0;resizeParent=1;resizeParentMax=0;resizeLast=0;collapsible=1;marginBottom=0;whiteSpace=wrap;html=1;" vertex="1" parent="1">
          <mxGeometry x="1485" y="230" width="140" height="52" as="geometry" />
        </mxCell>
        <mxCell id="jJldL7cJ4zt6Rgu3-QxA-36" value="&lt;div style=&quot;&quot;&gt;&lt;pre style=&quot;font-size: 9.8pt;&quot;&gt;&lt;font face=&quot;Helvetica&quot; style=&quot;&quot; color=&quot;#0a0a0a&quot;&gt;StdSerializer&amp;lt;Appointment&amp;gt;&lt;/font&gt;&lt;/pre&gt;&lt;/div&gt;" style="swimlane;fontStyle=0;childLayout=stackLayout;horizontal=1;startSize=26;fillColor=none;horizontalStack=0;resizeParent=1;resizeParentMax=0;resizeLast=0;collapsible=1;marginBottom=0;whiteSpace=wrap;html=1;" vertex="1" parent="1">
          <mxGeometry x="1460" y="90" width="230" height="52" as="geometry" />
        </mxCell>
        <mxCell id="jJldL7cJ4zt6Rgu3-QxA-37" value="&amp;lt;&amp;lt;extend&amp;gt;&amp;gt;" style="html=1;verticalAlign=bottom;labelBackgroundColor=none;endArrow=open;endFill=0;dashed=1;rounded=0;" edge="1" parent="1" source="jJldL7cJ4zt6Rgu3-QxA-36" target="jJldL7cJ4zt6Rgu3-QxA-32">
          <mxGeometry width="160" relative="1" as="geometry">
            <mxPoint x="1430" y="280" as="sourcePoint" />
            <mxPoint x="1590" y="280" as="targetPoint" />
          </mxGeometry>
        </mxCell>
        <mxCell id="jJldL7cJ4zt6Rgu3-QxA-38" value="AppointmentRegisterForm" style="swimlane;fontStyle=0;childLayout=stackLayout;horizontal=1;startSize=26;fillColor=none;horizontalStack=0;resizeParent=1;resizeParentMax=0;resizeLast=0;collapsible=1;marginBottom=0;whiteSpace=wrap;html=1;" vertex="1" parent="1">
          <mxGeometry x="1480" y="320" width="190" height="156" as="geometry" />
        </mxCell>
        <mxCell id="jJldL7cJ4zt6Rgu3-QxA-39" value="- workId: int" style="text;strokeColor=none;fillColor=none;align=left;verticalAlign=top;spacingLeft=4;spacingRight=4;overflow=hidden;rotatable=0;points=[[0,0.5],[1,0.5]];portConstraint=eastwest;whiteSpace=wrap;html=1;" vertex="1" parent="jJldL7cJ4zt6Rgu3-QxA-38">
          <mxGeometry y="26" width="190" height="26" as="geometry" />
        </mxCell>
        <mxCell id="jJldL7cJ4zt6Rgu3-QxA-40" value="- providerId: int" style="text;strokeColor=none;fillColor=none;align=left;verticalAlign=top;spacingLeft=4;spacingRight=4;overflow=hidden;rotatable=0;points=[[0,0.5],[1,0.5]];portConstraint=eastwest;whiteSpace=wrap;html=1;" vertex="1" parent="jJldL7cJ4zt6Rgu3-QxA-38">
          <mxGeometry y="52" width="190" height="26" as="geometry" />
        </mxCell>
        <mxCell id="jJldL7cJ4zt6Rgu3-QxA-41" value="- customerId: int" style="text;strokeColor=none;fillColor=none;align=left;verticalAlign=top;spacingLeft=4;spacingRight=4;overflow=hidden;rotatable=0;points=[[0,0.5],[1,0.5]];portConstraint=eastwest;whiteSpace=wrap;html=1;" vertex="1" parent="jJldL7cJ4zt6Rgu3-QxA-38">
          <mxGeometry y="78" width="190" height="26" as="geometry" />
        </mxCell>
        <mxCell id="jJldL7cJ4zt6Rgu3-QxA-42" value="- start: LocalDateTime" style="text;strokeColor=none;fillColor=none;align=left;verticalAlign=top;spacingLeft=4;spacingRight=4;overflow=hidden;rotatable=0;points=[[0,0.5],[1,0.5]];portConstraint=eastwest;whiteSpace=wrap;html=1;" vertex="1" parent="jJldL7cJ4zt6Rgu3-QxA-38">
          <mxGeometry y="104" width="190" height="26" as="geometry" />
        </mxCell>
        <mxCell id="jJldL7cJ4zt6Rgu3-QxA-43" value="- end: LocalDateTime" style="text;strokeColor=none;fillColor=none;align=left;verticalAlign=top;spacingLeft=4;spacingRight=4;overflow=hidden;rotatable=0;points=[[0,0.5],[1,0.5]];portConstraint=eastwest;whiteSpace=wrap;html=1;" vertex="1" parent="jJldL7cJ4zt6Rgu3-QxA-38">
          <mxGeometry y="130" width="190" height="26" as="geometry" />
        </mxCell>
        <mxCell id="jJldL7cJ4zt6Rgu3-QxA-46" value="" style="rounded=0;whiteSpace=wrap;html=1;fillColor=none;dashed=1;" vertex="1" parent="1">
          <mxGeometry x="1160" y="60" width="600" height="930" as="geometry" />
        </mxCell>
        <mxCell id="jJldL7cJ4zt6Rgu3-QxA-47" value="Model" style="text;html=1;strokeColor=none;fillColor=none;align=center;verticalAlign=middle;whiteSpace=wrap;rounded=0;" vertex="1" parent="1">
          <mxGeometry x="1160" y="30" width="60" height="30" as="geometry" />
        </mxCell>
      </root>
    </mxGraphModel>
  </diagram>
</mxfile>
